<svg width="268" height="62" viewBox="0 0 268 62" fill="none" xmlns="http://www.w3.org/2000/svg">
<g filter="url(#filter0_d_1_9)">
<path d="M41.062 31.4349C41.062 15.3411 54.1086 2.21899 70.2024 2.21899H91.7501V24.2501C91.7501 40.2468 78.7822 53.2147 62.7855 53.2147V53.2147C50.7879 53.2147 41.062 43.4325 41.062 31.4349V31.4349Z" fill="#EA5580" fill-opacity="0.85" shape-rendering="crispEdges"/>
</g>
<g filter="url(#filter1_d_1_9)">
<path d="M54.6649 25.9697C54.5643 40.997 42.4285 53.0967 27.5587 52.9951L4 52.8342L4.15924 29.026C4.25974 13.9987 16.3956 1.89906 31.2654 2.00063L34.6309 2.02362C45.7833 2.0998 54.763 11.2981 54.6876 22.5685L54.6649 25.9697Z" fill="#30C0D6" fill-opacity="0.85" shape-rendering="crispEdges"/>
</g>
<path d="M115.106 18.2256V22.708H101.264V18.2256H115.106ZM104.691 12.3589H111.02V34.8369C111.02 35.5254 111.107 36.0527 111.283 36.4189C111.474 36.7852 111.752 37.0415 112.118 37.188C112.484 37.3198 112.946 37.3857 113.502 37.3857C113.898 37.3857 114.25 37.3711 114.557 37.3418C114.879 37.2979 115.15 37.2539 115.37 37.21L115.392 41.8682C114.85 42.0439 114.264 42.1831 113.634 42.2856C113.004 42.3882 112.309 42.4395 111.547 42.4395C110.155 42.4395 108.939 42.2124 107.899 41.7583C106.874 41.2896 106.083 40.5425 105.526 39.5171C104.97 38.4917 104.691 37.144 104.691 35.4741V12.3589ZM131.542 36.6387V26.0479C131.542 25.2861 131.417 24.6343 131.168 24.0923C130.919 23.5356 130.531 23.1035 130.004 22.7959C129.491 22.4883 128.825 22.3345 128.004 22.3345C127.301 22.3345 126.693 22.459 126.181 22.708C125.668 22.9424 125.272 23.2866 124.994 23.7407C124.716 24.1802 124.577 24.7002 124.577 25.3008H118.249C118.249 24.29 118.483 23.3306 118.952 22.4224C119.42 21.5142 120.102 20.7158 120.995 20.0273C121.889 19.3242 122.951 18.7749 124.181 18.3794C125.426 17.9839 126.818 17.7861 128.356 17.7861C130.202 17.7861 131.842 18.0938 133.278 18.709C134.713 19.3242 135.841 20.2471 136.662 21.4775C137.497 22.708 137.914 24.2461 137.914 26.0918V36.2651C137.914 37.5688 137.995 38.6382 138.156 39.4731C138.317 40.2935 138.551 41.0112 138.859 41.6265V42H132.465C132.157 41.3555 131.923 40.5498 131.762 39.583C131.615 38.6016 131.542 37.6201 131.542 36.6387ZM132.377 27.52L132.421 31.1016H128.883C128.048 31.1016 127.323 31.1968 126.708 31.3872C126.093 31.5776 125.587 31.8486 125.192 32.2002C124.796 32.5371 124.503 32.9326 124.313 33.3867C124.137 33.8408 124.049 34.3389 124.049 34.8809C124.049 35.4229 124.174 35.9136 124.423 36.353C124.672 36.7778 125.031 37.1147 125.5 37.3638C125.968 37.5981 126.518 37.7153 127.147 37.7153C128.1 37.7153 128.927 37.5249 129.63 37.144C130.333 36.7632 130.875 36.2944 131.256 35.7378C131.652 35.1812 131.857 34.6538 131.872 34.1558L133.542 36.8364C133.307 37.437 132.985 38.0596 132.575 38.7041C132.179 39.3486 131.674 39.9565 131.059 40.5278C130.443 41.0845 129.704 41.5459 128.839 41.9121C127.975 42.2637 126.95 42.4395 125.763 42.4395C124.254 42.4395 122.885 42.1392 121.654 41.5386C120.438 40.9233 119.472 40.0811 118.754 39.0117C118.051 37.9277 117.699 36.6973 117.699 35.3203C117.699 34.0752 117.934 32.9692 118.402 32.0024C118.871 31.0356 119.56 30.2227 120.468 29.5635C121.391 28.8896 122.541 28.3843 123.917 28.0474C125.294 27.6958 126.891 27.52 128.708 27.52H132.377ZM148.988 23.3013V42H142.66V18.2256H148.593L148.988 23.3013ZM148.065 29.2778H146.352C146.352 27.52 146.579 25.938 147.033 24.5317C147.487 23.1108 148.124 21.9023 148.944 20.9062C149.765 19.8955 150.739 19.1265 151.867 18.5991C153.009 18.0571 154.284 17.7861 155.69 17.7861C156.803 17.7861 157.821 17.9473 158.744 18.2695C159.667 18.5918 160.458 19.1045 161.117 19.8076C161.791 20.5107 162.304 21.4409 162.655 22.5981C163.021 23.7554 163.205 25.1689 163.205 26.8389V42H156.833V26.8169C156.833 25.7622 156.686 24.9419 156.393 24.356C156.1 23.77 155.668 23.3599 155.097 23.1255C154.54 22.8765 153.852 22.752 153.031 22.752C152.182 22.752 151.442 22.9204 150.812 23.2573C150.197 23.5942 149.684 24.063 149.274 24.6636C148.878 25.2495 148.578 25.938 148.373 26.729C148.168 27.52 148.065 28.3696 148.065 29.2778ZM182.057 36.8145V8.25H188.429V42H182.694L182.057 36.8145ZM167.028 30.3984V29.937C167.028 28.1206 167.233 26.4727 167.643 24.9932C168.053 23.499 168.654 22.2173 169.445 21.1479C170.236 20.0786 171.21 19.251 172.367 18.665C173.524 18.0791 174.843 17.7861 176.322 17.7861C177.714 17.7861 178.93 18.0791 179.97 18.665C181.024 19.251 181.918 20.0859 182.65 21.1699C183.397 22.2393 183.998 23.5063 184.452 24.9712C184.906 26.4214 185.236 28.0107 185.441 29.7393V30.75C185.236 32.4053 184.906 33.9434 184.452 35.3643C183.998 36.7852 183.397 38.0303 182.65 39.0996C181.918 40.1543 181.024 40.9746 179.97 41.5605C178.915 42.1465 177.685 42.4395 176.278 42.4395C174.799 42.4395 173.48 42.1392 172.323 41.5386C171.181 40.938 170.214 40.0957 169.423 39.0117C168.646 37.9277 168.053 36.6533 167.643 35.1885C167.233 33.7236 167.028 32.127 167.028 30.3984ZM173.356 29.937V30.3984C173.356 31.3799 173.429 32.2954 173.576 33.145C173.737 33.9946 173.993 34.749 174.345 35.4082C174.711 36.0527 175.18 36.5581 175.751 36.9243C176.337 37.2759 177.047 37.4517 177.882 37.4517C178.966 37.4517 179.86 37.21 180.563 36.7266C181.266 36.2285 181.801 35.5474 182.167 34.6831C182.548 33.8188 182.768 32.8228 182.826 31.6948V28.8164C182.782 27.8936 182.65 27.0659 182.431 26.3335C182.226 25.5864 181.918 24.9492 181.508 24.4219C181.112 23.8945 180.614 23.4844 180.014 23.1914C179.428 22.8984 178.732 22.752 177.926 22.752C177.106 22.752 176.403 22.9424 175.817 23.3232C175.231 23.6895 174.755 24.1948 174.389 24.8394C174.037 25.4839 173.773 26.2456 173.598 27.1245C173.437 27.9888 173.356 28.9263 173.356 29.937ZM204.315 42.4395C202.47 42.4395 200.814 42.1465 199.35 41.5605C197.885 40.96 196.64 40.1323 195.614 39.0776C194.604 38.0229 193.827 36.7998 193.285 35.4082C192.743 34.002 192.472 32.5078 192.472 30.9258V30.0469C192.472 28.2451 192.729 26.5972 193.241 25.103C193.754 23.6089 194.486 22.3125 195.438 21.2139C196.405 20.1152 197.577 19.2729 198.954 18.687C200.331 18.0864 201.884 17.7861 203.612 17.7861C205.297 17.7861 206.791 18.0645 208.095 18.6211C209.398 19.1777 210.49 19.9688 211.369 20.9941C212.262 22.0195 212.936 23.25 213.39 24.6855C213.844 26.1064 214.071 27.6885 214.071 29.4316V32.0684H195.175V27.8496H207.853V27.3662C207.853 26.4873 207.692 25.7036 207.37 25.0151C207.062 24.312 206.593 23.7554 205.963 23.3452C205.333 22.9351 204.528 22.73 203.546 22.73C202.711 22.73 201.994 22.9131 201.393 23.2793C200.792 23.6455 200.302 24.1582 199.921 24.8174C199.555 25.4766 199.276 26.2529 199.086 27.1465C198.91 28.0254 198.822 28.9922 198.822 30.0469V30.9258C198.822 31.8779 198.954 32.7568 199.218 33.5625C199.496 34.3682 199.884 35.064 200.382 35.6499C200.895 36.2358 201.51 36.6899 202.228 37.0122C202.96 37.3345 203.788 37.4956 204.711 37.4956C205.854 37.4956 206.916 37.2759 207.897 36.8364C208.893 36.3823 209.75 35.7012 210.468 34.793L213.544 38.1328C213.046 38.8506 212.365 39.5391 211.5 40.1982C210.651 40.8574 209.625 41.3994 208.424 41.8242C207.223 42.2344 205.854 42.4395 204.315 42.4395ZM224.003 23.1475V42H217.653V18.2256H223.607L224.003 23.1475ZM223.124 29.2778H221.366C221.366 27.6226 221.564 26.0991 221.959 24.7075C222.37 23.3013 222.963 22.0854 223.739 21.0601C224.53 20.02 225.504 19.2144 226.662 18.6431C227.819 18.0718 229.159 17.7861 230.683 17.7861C231.737 17.7861 232.704 17.9473 233.583 18.2695C234.462 18.5771 235.216 19.0679 235.846 19.7417C236.491 20.4009 236.989 21.2651 237.34 22.3345C237.692 23.3892 237.868 24.6562 237.868 26.1357V42H231.54V26.8389C231.54 25.7549 231.393 24.9199 231.1 24.334C230.807 23.748 230.39 23.3379 229.848 23.1035C229.32 22.8691 228.683 22.752 227.936 22.752C227.116 22.752 226.398 22.9204 225.783 23.2573C225.182 23.5942 224.684 24.063 224.289 24.6636C223.893 25.2495 223.6 25.938 223.41 26.729C223.219 27.52 223.124 28.3696 223.124 29.2778ZM237.274 28.5527L235.011 28.8384C235.011 27.2856 235.202 25.8428 235.583 24.5098C235.978 23.1768 236.557 22.0049 237.318 20.9941C238.095 19.9834 239.054 19.1997 240.197 18.6431C241.339 18.0718 242.658 17.7861 244.152 17.7861C245.294 17.7861 246.334 17.9546 247.272 18.2915C248.209 18.6138 249.008 19.1338 249.667 19.8516C250.341 20.5547 250.854 21.4775 251.205 22.6201C251.571 23.7627 251.754 25.1616 251.754 26.8169V42H245.404V26.8169C245.404 25.7183 245.258 24.8833 244.965 24.312C244.687 23.7261 244.276 23.3232 243.734 23.1035C243.207 22.8691 242.577 22.752 241.845 22.752C241.083 22.752 240.417 22.9058 239.845 23.2134C239.274 23.5063 238.798 23.9165 238.417 24.4438C238.036 24.9712 237.75 25.5864 237.56 26.2896C237.37 26.978 237.274 27.7324 237.274 28.5527Z" fill="black"/>
<defs>
<filter id="filter0_d_1_9" x="37.062" y="2.21899" width="58.688" height="58.9958" filterUnits="userSpaceOnUse" color-interpolation-filters="sRGB">
<feFlood flood-opacity="0" result="BackgroundImageFix"/>
<feColorMatrix in="SourceAlpha" type="matrix" values="0 0 0 0 0 0 0 0 0 0 0 0 0 0 0 0 0 0 127 0" result="hardAlpha"/>
<feOffset dy="4"/>
<feGaussianBlur stdDeviation="2"/>
<feComposite in2="hardAlpha" operator="out"/>
<feColorMatrix type="matrix" values="0 0 0 0 0 0 0 0 0 0 0 0 0 0 0 0 0 0 0.25 0"/>
<feBlend mode="normal" in2="BackgroundImageFix" result="effect1_dropShadow_1_9"/>
<feBlend mode="normal" in="SourceGraphic" in2="effect1_dropShadow_1_9" result="shape"/>
</filter>
<filter id="filter1_d_1_9" x="0" y="2" width="58.688" height="58.9956" filterUnits="userSpaceOnUse" color-interpolation-filters="sRGB">
<feFlood flood-opacity="0" result="BackgroundImageFix"/>
<feColorMatrix in="SourceAlpha" type="matrix" values="0 0 0 0 0 0 0 0 0 0 0 0 0 0 0 0 0 0 127 0" result="hardAlpha"/>
<feOffset dy="4"/>
<feGaussianBlur stdDeviation="2"/>
<feComposite in2="hardAlpha" operator="out"/>
<feColorMatrix type="matrix" values="0 0 0 0 0 0 0 0 0 0 0 0 0 0 0 0 0 0 0.25 0"/>
<feBlend mode="normal" in2="BackgroundImageFix" result="effect1_dropShadow_1_9"/>
<feBlend mode="normal" in="SourceGraphic" in2="effect1_dropShadow_1_9" result="shape"/>
</filter>
</defs>
</svg>
